<svg width="324" height="324" viewBox="0 0 324 324" fill="none" xmlns="http://www.w3.org/2000/svg">
<g clip-path="url(#clip0_122_201)">
<path d="M55 98.5L164.5 161.5M55 98.5V161M55 98.5L109.75 67.25M164.5 36L219.5 67.25M164.5 36L109.75 67.25M164.5 36V289M274.5 98.5L219.5 67.25M274.5 98.5L219.5 130M274.5 98.5V161M274.5 223.5L164.5 161.5M274.5 223.5L219.5 256.25M274.5 223.5V161M164.5 289L219.5 256.25M164.5 289L109.75 256.25M55 223.5L109.75 192.5M55 223.5V161M55 223.5L109.75 256.25M164.5 161.5L109.75 192.5M164.5 161.5L219.5 130M219.5 256.25L109.75 192.5M219.5 256.25V67.25M109.75 192.5L55 161M55 161L219.5 67.25M109.75 67.25L219.5 130M109.75 67.25V256.25M219.5 130L274.5 161M109.75 256.25L274.5 161" stroke="url(#paint0_linear_122_201)"/>
<g clip-path="url(#clip1_122_201)">
<path opacity="0.3" fill-rule="evenodd" clip-rule="evenodd" d="M143.569 135.701L143.578 134.295L153.425 134.358C153.601 122.56 156.323 111.387 161.063 101.359L143.789 101.249L143.798 99.8426L161.742 99.957C165.606 92.1783 170.696 85.1186 176.757 79.0289L155.019 57.0116L156.019 56.0236L177.758 78.0409C192.156 64.0705 211.776 55.4637 233.38 55.4158L233.443 45.5692L234.849 45.5782L234.786 55.4247C256.388 55.7481 275.896 64.6043 290.115 78.7571L312.132 57.0187L313.12 58.0194L291.103 79.7578C297.086 85.9242 302.085 93.0482 305.85 100.876L323.794 100.99L323.785 102.396L306.511 102.286C311.123 112.374 313.702 123.581 313.728 135.38L323.575 135.442L323.566 136.849L313.719 136.786C313.396 158.387 304.539 177.896 290.387 192.115L312.125 214.132L311.124 215.12L289.386 193.103C274.988 207.073 255.368 215.68 233.764 215.728L233.701 225.575L232.295 225.566L232.358 215.719C210.756 215.396 191.248 206.539 177.029 192.387L155.012 214.125L154.024 213.124L176.041 191.386C162.071 176.987 153.464 157.368 153.416 135.764L143.569 135.701ZM304.281 100.866C300.62 93.4224 295.819 86.6391 290.102 80.7458L269.946 100.647L304.281 100.866ZM268.531 102.044L304.957 102.276C309.658 112.337 312.294 123.551 312.322 135.371L281.383 135.173C281.281 122.501 276.242 110.989 268.086 102.483L268.531 102.044ZM267.957 100.634L266.201 100.623C257.89 92.8604 246.805 88.0241 234.58 87.7699L234.777 56.831C255.99 57.1518 275.148 65.8484 289.114 79.7451L267.957 100.634ZM264.088 100.609L234.499 100.421L234.571 89.1763C245.872 89.4162 256.168 93.6902 264.088 100.609ZM243.663 101.885L265.637 102.026C265.792 102.173 265.945 102.321 266.097 102.471L258.09 110.376C254.088 106.48 249.159 103.529 243.663 101.885ZM233.093 100.412L233.165 89.1673C221.862 89.2631 211.512 93.4055 203.504 100.223L233.093 100.412ZM201.937 101.62L223.911 101.76C218.394 103.333 213.429 106.221 209.377 110.066L201.472 102.059C201.626 101.911 201.781 101.765 201.937 101.62ZM201.392 100.21L199.635 100.199L178.746 79.0416C192.888 65.3241 212.155 56.8724 233.371 56.822L233.174 87.7609C220.946 87.8592 209.8 92.5538 201.392 100.21ZM197.646 100.186L163.311 99.967C167.066 92.571 171.954 85.8496 177.745 80.0296L197.646 100.186ZM162.617 101.369L199.043 101.601L199.483 102.046C191.219 110.447 186.033 121.893 185.77 134.564L154.831 134.367C155.01 122.549 157.788 111.369 162.617 101.369ZM177.042 190.398C163.324 176.256 154.872 156.989 154.822 135.773L185.761 135.97C185.863 148.643 190.902 160.154 199.058 168.66L177.042 190.398ZM200.059 167.672C192.156 159.422 187.272 148.264 187.167 135.979L198.419 136.051C198.54 145.229 202.184 153.568 208.066 159.767L200.059 167.672ZM187.176 134.573L198.428 134.645C198.666 125.469 202.416 117.177 208.376 111.054L200.471 103.047C192.463 111.195 187.437 122.291 187.176 134.573ZM209.067 158.779C203.437 152.836 199.949 144.85 199.825 136.06L231.87 136.264L209.067 158.779ZM199.834 134.654L231.879 134.858L209.364 112.055C203.66 117.925 200.07 125.866 199.834 134.654ZM257.779 159.089L235.265 136.286L267.31 136.49C267.074 145.278 263.484 153.219 257.779 159.089ZM235.274 134.88L267.319 135.084C267.195 126.294 263.706 118.308 258.077 112.365L235.274 134.88ZM258.768 160.09C264.728 153.966 268.478 145.675 268.716 136.499L279.968 136.571C279.707 148.853 274.681 159.948 266.673 168.097L258.768 160.09ZM268.725 135.093L279.977 135.165C279.872 122.88 274.988 111.721 267.085 103.472L259.078 111.377C264.96 117.576 268.604 125.915 268.725 135.093ZM267.661 169.098C275.925 160.696 281.11 149.25 281.374 136.58L312.313 136.777C311.992 157.99 303.295 177.148 289.399 191.114L267.661 169.098ZM257.089 111.364L234.286 133.879L234.49 101.834C243.278 102.07 251.219 105.66 257.089 111.364ZM233.084 101.825C224.294 101.949 216.308 105.437 210.365 111.067L232.88 133.87L233.084 101.825ZM209.054 160.768L201.047 168.673C209.195 176.681 220.291 181.707 232.573 181.967L232.645 170.716C223.469 170.477 215.177 166.728 209.054 160.768ZM232.654 169.31C223.866 169.074 215.925 165.484 210.055 159.779L232.858 137.265L232.654 169.31ZM234.06 169.318L234.264 137.274L256.779 160.077C250.836 165.706 242.85 169.195 234.06 169.318ZM234.051 170.725C243.229 170.603 251.568 166.96 257.767 161.078L265.672 169.085C257.423 176.988 246.264 181.872 233.979 181.976L234.051 170.725ZM178.03 191.399L200.046 169.661C208.448 177.925 219.894 183.11 232.564 183.374L232.367 214.313C211.154 213.992 191.996 205.295 178.03 191.399ZM266.66 170.086C258.154 178.242 246.643 183.281 233.97 183.383L233.773 214.322C254.989 214.271 274.256 205.82 288.398 192.102L266.66 170.086Z" fill="url(#paint1_linear_122_201)"/>
</g>
<g clip-path="url(#clip2_122_201)">
<path opacity="0.3" fill-rule="evenodd" clip-rule="evenodd" d="M143.569 190.701L143.578 189.295L153.425 189.358C153.748 167.756 162.604 148.248 176.757 134.029L155.019 112.012L156.019 111.024L177.758 133.041C192.156 119.071 211.776 110.464 233.38 110.416L233.443 100.569L234.849 100.578L234.786 110.425C256.388 110.748 275.896 119.604 290.115 133.757L312.132 112.019L313.12 113.019L291.103 134.758C305.073 149.156 313.68 168.776 313.728 190.38L323.575 190.442L323.566 191.849L313.719 191.786C313.542 203.583 310.821 214.757 306.081 224.785L323.355 224.895L323.346 226.301L305.402 226.187C301.538 233.965 296.448 241.025 290.387 247.115L312.125 269.132L311.124 270.12L289.386 248.103C274.988 262.073 255.368 270.68 233.764 270.728L233.701 280.575L232.295 280.566L232.358 270.719C210.756 270.396 191.248 261.539 177.029 247.387L155.012 269.125L154.024 268.124L176.041 246.386C170.058 240.22 165.059 233.095 161.294 225.268L143.35 225.154L143.359 223.747L160.632 223.858C156.021 213.77 153.442 202.563 153.416 190.764L143.569 190.701ZM162.863 225.278C166.524 232.721 171.325 239.505 177.042 245.398L197.198 225.497L162.863 225.278ZM198.613 224.1L162.187 223.868C157.486 213.807 154.85 202.592 154.822 190.773L185.761 190.97C185.863 203.643 190.902 215.154 199.058 223.66L198.613 224.1ZM199.187 225.51L200.943 225.521C209.254 233.283 220.339 238.12 232.564 238.374L232.367 269.313C211.154 268.992 191.996 260.295 178.03 246.399L199.187 225.51ZM203.056 225.534L232.645 225.723L232.573 236.967C221.272 236.728 210.976 232.454 203.056 225.534ZM223.481 224.258L201.506 224.118C201.352 223.971 201.199 223.822 201.047 223.673L209.054 215.768C213.056 219.663 217.984 222.614 223.481 224.258ZM234.051 225.732L233.979 236.976C245.282 236.881 255.632 232.738 263.64 225.92L234.051 225.732ZM265.207 224.524L243.233 224.384C248.75 222.811 253.715 219.922 257.767 216.078L265.672 224.085C265.518 224.232 265.363 224.379 265.207 224.524ZM265.752 225.934L267.509 225.945L288.398 247.102C274.256 260.82 254.989 269.271 233.773 269.322L233.97 238.383C246.198 238.284 257.344 233.59 265.752 225.934ZM269.498 225.958L303.833 226.177C300.078 233.573 295.19 240.294 289.399 246.114L269.498 225.958ZM304.527 224.775L268.1 224.543L267.661 224.098C275.925 215.696 281.11 204.25 281.374 191.58L312.313 191.777C312.134 203.595 309.356 214.775 304.527 224.775ZM154.831 189.367L185.77 189.564C186.033 176.893 191.219 165.447 199.483 157.046L177.745 135.03C163.849 148.996 155.152 168.154 154.831 189.367ZM200.059 222.672C192.156 214.422 187.272 203.264 187.167 190.979L198.419 191.051C198.54 200.229 202.184 208.568 208.066 214.767L200.059 222.672ZM187.176 189.573L198.428 189.645C198.666 180.469 202.416 172.177 208.376 166.054L200.471 158.047C192.463 166.195 187.437 177.291 187.176 189.573ZM209.067 213.779C203.437 207.836 199.949 199.85 199.825 191.06L231.87 191.264L209.067 213.779ZM199.834 189.654L231.879 189.858L209.364 167.055C203.66 172.925 200.07 180.866 199.834 189.654ZM257.779 214.089L235.265 191.286L267.31 191.49C267.074 200.278 263.484 208.219 257.779 214.089ZM235.274 189.88L267.319 190.084C267.195 181.294 263.706 173.308 258.077 167.365L235.274 189.88ZM258.768 215.09C264.728 208.966 268.478 200.675 268.716 191.499L279.968 191.571C279.707 203.853 274.681 214.948 266.673 223.097L258.768 215.09ZM268.725 190.093L279.977 190.165C279.872 177.88 274.988 166.721 267.085 158.472L259.078 166.377C264.96 172.576 268.604 180.915 268.725 190.093ZM281.383 190.173L312.322 190.371C312.271 169.155 303.82 149.888 290.102 135.746L268.086 157.483C276.242 165.989 281.281 177.501 281.383 190.173ZM257.089 166.364L234.286 188.879L234.49 156.834C243.278 157.07 251.219 160.66 257.089 166.364ZM258.09 165.376C251.967 159.416 243.675 155.666 234.499 155.428L234.571 144.176C246.853 144.437 257.949 149.463 266.097 157.471L258.09 165.376ZM233.093 155.419L233.165 144.167C220.88 144.271 209.721 149.155 201.472 157.059L209.377 165.066C215.576 159.184 223.915 155.54 233.093 155.419ZM233.084 156.825C224.294 156.949 216.308 160.437 210.365 166.067L232.88 188.87L233.084 156.825ZM232.654 224.31C223.866 224.074 215.925 220.484 210.055 214.779L232.858 192.265L232.654 224.31ZM234.06 224.318L234.264 192.274L256.779 215.077C250.836 220.706 242.85 224.195 234.06 224.318ZM289.114 134.745L267.098 156.483C258.696 148.219 247.25 143.033 234.58 142.77L234.777 111.831C255.99 112.152 275.148 120.848 289.114 134.745ZM233.371 111.822L233.174 142.761C220.501 142.863 208.99 147.902 200.484 156.058L178.746 134.042C192.888 120.324 212.155 111.872 233.371 111.822Z" fill="url(#paint2_linear_122_201)"/>
</g>
<path opacity="0.3" fill-rule="evenodd" clip-rule="evenodd" d="M194 135.688V136.312H198.376C198.421 141.556 199.599 146.53 201.677 151H194V151.625H201.975C203.671 155.093 205.913 158.245 208.589 160.969L198.866 170.692L199.308 171.134L209.031 161.411C211.755 164.087 214.907 166.329 218.375 168.025V176H219V168.323C223.47 170.401 228.444 171.579 233.688 171.624V176H234.312V171.624C239.556 171.579 244.53 170.401 249 168.323V176H249.625V168.025C253.093 166.329 256.245 164.087 258.969 161.411L268.692 171.134L269.134 170.692L259.411 160.969C262.087 158.245 264.329 155.093 266.025 151.625H274V151H266.323C268.401 146.53 269.579 141.556 269.624 136.312H274V135.688H269.624C269.579 130.444 268.401 125.47 266.323 121H274V120.375H266.025C264.329 116.907 262.087 113.755 259.411 111.031L269.134 101.308L268.692 100.866L258.969 110.589C256.245 107.913 253.093 105.671 249.625 103.975V96H249V103.677C244.53 101.599 239.556 100.421 234.312 100.376V96H233.688V100.376C228.444 100.421 223.47 101.599 219 103.677V96H218.375V103.975C214.907 105.671 211.755 107.913 209.031 110.589L199.308 100.866L198.866 101.308L208.589 111.031C205.913 113.755 203.671 116.907 201.975 120.375H194V121H201.677C199.599 125.47 198.421 130.444 198.376 135.688H194ZM265.632 151C267.75 146.542 268.953 141.565 268.999 136.312H255.248C255.169 141.747 253.051 146.687 249.625 150.402V151H265.632ZM248.402 151.625H249V167.632C244.542 169.75 239.565 170.953 234.312 170.999V157.248C239.747 157.169 244.687 155.051 248.402 151.625ZM248.156 151C248.225 150.935 248.293 150.869 248.361 150.803L244.825 147.267C243.036 148.987 240.837 150.285 238.39 151H248.156ZM234.312 151.625H247.463C243.924 154.678 239.336 156.548 234.312 156.623V151.625ZM229.61 151C227.163 150.285 224.964 148.987 223.175 147.267L219.639 150.803C219.707 150.869 219.775 150.935 219.844 151H229.61ZM220.537 151.625H233.688V156.623C228.664 156.548 224.076 154.678 220.537 151.625ZM219 151.625H219.598C223.313 155.051 228.253 157.169 233.688 157.248V170.999C228.435 170.953 223.458 169.75 219 167.632V151.625ZM218.375 151V150.402C214.949 146.687 212.831 141.747 212.752 136.312H199.001C199.047 141.565 200.25 146.542 202.368 151H218.375ZM202.673 151.625H217.933L209.031 160.527C206.474 157.924 204.321 154.923 202.673 151.625ZM250.067 151.625H265.327C263.679 154.923 261.526 157.924 258.969 160.527L250.067 151.625ZM258.969 111.473C261.526 114.076 263.679 117.077 265.327 120.375H250.067L258.969 111.473ZM265.632 121H249.625V121.598C253.051 125.313 255.169 130.253 255.248 135.688H268.999C268.953 130.435 267.75 125.458 265.632 121ZM248.402 120.375H249V104.368C244.542 102.25 239.565 101.047 234.312 101.001V114.752C239.747 114.831 244.687 116.949 248.402 120.375ZM234.312 120.375H247.463C243.924 117.322 239.336 115.452 234.312 115.377V120.375ZM248.156 121H238.39C240.837 121.715 243.036 123.013 244.825 124.733L248.361 121.197C248.293 121.131 248.225 121.065 248.156 121ZM233.688 115.377V120.375H220.537C224.076 117.322 228.664 115.452 233.688 115.377ZM229.61 121H219.844C219.775 121.065 219.707 121.131 219.639 121.197L223.175 124.733C224.964 123.013 227.163 121.715 229.61 121ZM219 120.375H219.598C223.313 116.949 228.253 114.831 233.688 114.752V101.001C228.435 101.047 223.458 102.25 219 104.368V120.375ZM202.673 120.375H217.933L209.031 111.473C206.474 114.076 204.321 117.077 202.673 120.375ZM218.375 121H202.368C200.25 125.458 199.047 130.435 199.001 135.688H212.752C212.831 130.253 214.949 125.313 218.375 121.598V121ZM213.377 136.312C213.452 141.336 215.322 145.924 218.375 149.463V136.312H213.377ZM218.375 135.688H213.377C213.452 130.664 215.322 126.076 218.375 122.537V135.688ZM219.003 136.312C219.083 140.219 220.656 143.758 223.175 146.383L233.246 136.312H219.003ZM233.246 135.688H219.003C219.083 131.781 220.656 128.242 223.175 125.617L233.246 135.688ZM234.754 136.312L244.825 146.383C247.344 143.758 248.917 140.219 248.997 136.312H234.754ZM248.997 135.688H234.754L244.825 125.617C247.344 128.242 248.917 131.781 248.997 135.688ZM249.625 136.312V149.463C252.678 145.924 254.548 141.336 254.623 136.312H249.625ZM254.623 135.688H249.625V122.537C252.678 126.076 254.548 130.664 254.623 135.688ZM209.473 111.031C212.076 108.474 215.077 106.321 218.375 104.673V119.933L209.473 111.031ZM219.197 121.639C219.131 121.707 219.065 121.775 219 121.844V131.61C219.715 129.163 221.013 126.964 222.733 125.175L219.197 121.639ZM219 140.39V150.156C219.065 150.225 219.131 150.293 219.197 150.361L222.733 146.825C221.013 145.036 219.715 142.837 219 140.39ZM218.375 167.327V152.067L209.473 160.969C212.076 163.526 215.077 165.679 218.375 167.327ZM249.625 167.327C252.923 165.679 255.924 163.526 258.527 160.969L249.625 152.067V167.327ZM249.625 119.933L258.527 111.031C255.924 108.474 252.923 106.321 249.625 104.673V119.933ZM249 121.844C248.935 121.775 248.869 121.707 248.803 121.639L245.267 125.175C246.987 126.964 248.285 129.163 249 131.61V121.844ZM249 150.156C248.935 150.225 248.869 150.293 248.803 150.361L245.267 146.825C246.987 145.036 248.285 142.837 249 140.39V150.156ZM234.312 135.246L244.383 125.175C241.758 122.656 238.219 121.083 234.312 121.003V135.246ZM223.617 125.175C226.242 122.656 229.781 121.083 233.688 121.003V135.246L223.617 125.175ZM223.617 146.825C226.242 149.344 229.781 150.917 233.688 150.997V136.754L223.617 146.825ZM234.312 136.754V150.997C238.219 150.917 241.758 149.344 244.383 146.825L234.312 136.754Z" fill="url(#paint3_linear_122_201)"/>
<path opacity="0.3" fill-rule="evenodd" clip-rule="evenodd" d="M194 190.688V191.312H198.376C198.421 196.556 199.599 201.53 201.677 206H194V206.625H201.975C203.671 210.093 205.913 213.245 208.589 215.969L198.866 225.692L199.308 226.134L209.031 216.411C211.755 219.087 214.907 221.329 218.375 223.025V231H219V223.323C223.47 225.401 228.444 226.579 233.688 226.624V231H234.312V226.624C239.556 226.579 244.53 225.401 249 223.323V231H249.625V223.025C253.093 221.329 256.245 219.087 258.969 216.411L268.692 226.134L269.134 225.692L259.411 215.969C262.087 213.245 264.329 210.093 266.025 206.625H274V206H266.323C268.401 201.53 269.579 196.556 269.624 191.312H274V190.688H269.624C269.579 185.444 268.401 180.47 266.323 176H274V175.375H266.025C264.329 171.907 262.087 168.755 259.411 166.031L269.134 156.308L268.692 155.866L258.969 165.589C256.245 162.913 253.093 160.671 249.625 158.975V151H249V158.677C244.53 156.599 239.556 155.421 234.312 155.376V151H233.688V155.376C228.444 155.421 223.47 156.599 219 158.677V151H218.375V158.975C214.907 160.671 211.755 162.913 209.031 165.589L199.308 155.866L198.866 156.308L208.589 166.031C205.913 168.755 203.671 171.907 201.975 175.375H194V176H201.677C199.599 180.47 198.421 185.444 198.376 190.688H194ZM265.632 206C267.75 201.542 268.953 196.565 268.999 191.312H255.248C255.169 196.747 253.051 201.687 249.625 205.402V206H265.632ZM248.402 206.625H249V222.632C244.542 224.75 239.565 225.953 234.312 225.999V212.248C239.747 212.169 244.687 210.051 248.402 206.625ZM248.156 206C248.225 205.935 248.293 205.869 248.361 205.803L244.825 202.267C243.036 203.987 240.837 205.285 238.39 206H248.156ZM234.312 206.625H247.463C243.924 209.678 239.336 211.548 234.312 211.623V206.625ZM229.61 206C227.163 205.285 224.964 203.987 223.175 202.267L219.639 205.803C219.707 205.869 219.775 205.935 219.844 206H229.61ZM220.537 206.625H233.688V211.623C228.664 211.548 224.076 209.678 220.537 206.625ZM219 206.625H219.598C223.313 210.051 228.253 212.169 233.688 212.248V225.999C228.435 225.953 223.458 224.75 219 222.632V206.625ZM218.375 206V205.402C214.949 201.687 212.831 196.747 212.752 191.312H199.001C199.047 196.565 200.25 201.542 202.368 206H218.375ZM202.673 206.625H217.933L209.031 215.527C206.474 212.924 204.321 209.923 202.673 206.625ZM250.067 206.625H265.327C263.679 209.923 261.526 212.924 258.969 215.527L250.067 206.625ZM258.969 166.473C261.526 169.076 263.679 172.077 265.327 175.375H250.067L258.969 166.473ZM265.632 176H249.625V176.598C253.051 180.313 255.169 185.253 255.248 190.688H268.999C268.953 185.435 267.75 180.458 265.632 176ZM248.402 175.375H249V159.368C244.542 157.25 239.565 156.047 234.312 156.001V169.752C239.747 169.831 244.687 171.949 248.402 175.375ZM234.312 175.375H247.463C243.924 172.322 239.336 170.452 234.312 170.377V175.375ZM248.156 176H238.39C240.837 176.715 243.036 178.013 244.825 179.733L248.361 176.197C248.293 176.131 248.225 176.065 248.156 176ZM233.688 170.377V175.375H220.537C224.076 172.322 228.664 170.452 233.688 170.377ZM229.61 176H219.844C219.775 176.065 219.707 176.131 219.639 176.197L223.175 179.733C224.964 178.013 227.163 176.715 229.61 176ZM219 175.375H219.598C223.313 171.949 228.253 169.831 233.688 169.752V156.001C228.435 156.047 223.458 157.25 219 159.368V175.375ZM202.673 175.375H217.933L209.031 166.473C206.474 169.076 204.321 172.077 202.673 175.375ZM218.375 176H202.368C200.25 180.458 199.047 185.435 199.001 190.688H212.752C212.831 185.253 214.949 180.313 218.375 176.598V176ZM213.377 191.312C213.452 196.336 215.322 200.924 218.375 204.463V191.312H213.377ZM218.375 190.688H213.377C213.452 185.664 215.322 181.076 218.375 177.537V190.688ZM219.003 191.312C219.083 195.219 220.656 198.758 223.175 201.383L233.246 191.312H219.003ZM233.246 190.688H219.003C219.083 186.781 220.656 183.242 223.175 180.617L233.246 190.688ZM234.754 191.312L244.825 201.383C247.344 198.758 248.917 195.219 248.997 191.312H234.754ZM248.997 190.688H234.754L244.825 180.617C247.344 183.242 248.917 186.781 248.997 190.688ZM249.625 191.312V204.463C252.678 200.924 254.548 196.336 254.623 191.312H249.625ZM254.623 190.688H249.625V177.537C252.678 181.076 254.548 185.664 254.623 190.688ZM209.473 166.031C212.076 163.474 215.077 161.321 218.375 159.673V174.933L209.473 166.031ZM219.197 176.639C219.131 176.707 219.065 176.775 219 176.844V186.61C219.715 184.163 221.013 181.964 222.733 180.175L219.197 176.639ZM219 195.39V205.156C219.065 205.225 219.131 205.293 219.197 205.361L222.733 201.825C221.013 200.036 219.715 197.837 219 195.39ZM218.375 222.327V207.067L209.473 215.969C212.076 218.526 215.077 220.679 218.375 222.327ZM249.625 222.327C252.923 220.679 255.924 218.526 258.527 215.969L249.625 207.067V222.327ZM249.625 174.933L258.527 166.031C255.924 163.474 252.923 161.321 249.625 159.673V174.933ZM249 176.844C248.935 176.775 248.869 176.707 248.803 176.639L245.267 180.175C246.987 181.964 248.285 184.163 249 186.61V176.844ZM249 205.156C248.935 205.225 248.869 205.293 248.803 205.361L245.267 201.825C246.987 200.036 248.285 197.837 249 195.39V205.156ZM234.312 190.246L244.383 180.175C241.758 177.656 238.219 176.083 234.312 176.003V190.246ZM223.617 180.175C226.242 177.656 229.781 176.083 233.688 176.003V190.246L223.617 180.175ZM223.617 201.825C226.242 204.344 229.781 205.917 233.688 205.997V191.754L223.617 201.825ZM234.312 191.754V205.997C238.219 205.917 241.758 204.344 244.383 201.825L234.312 191.754Z" fill="url(#paint4_linear_122_201)"/>
<path d="M55 223V98H88L125.511 156.56L161.5 98H191L132.147 189.893H121.363L79.0565 128.53V237.5L55 223Z" fill="#0D0D0D"/>
<path d="M55 223V98H88L125.511 156.56L161.5 98H191L132.147 189.893H121.363L79.0565 128.53V237.5L55 223Z" fill="url(#paint5_linear_122_201)" fill-opacity="0.2"/>
<path d="M186 151.5C186 151.5 232.493 151.579 234 151.5C244.237 150.961 249.5 143.5 249.5 136C250 131.5 245.5 121.5 235.5 120.5H203L216.5 101H234C244.284 101 253.27 105.408 259 111.5C267 119 269 130 269 136C269 142 268 146.5 265.5 151.5C263.5 156 261.491 159.055 256 163.5C256.5 164 258.605 165.565 259 166C264 171.5 269 179.5 269 191C269 202 263.5 212 259 216C252.5 223 242 226 234 226H138L153 206.5H234C239.092 206.5 242.369 204.638 245 202.063C248.5 198 249.5 194 249.5 191C249.5 187.5 248.125 183.285 245 180C242.853 177.743 239.067 175.5 234 175.5C221.557 175.5 170.655 175.499 170.655 175.499L186 151.5Z" fill="#0D0D0D"/>
<path d="M186 151.5C186 151.5 232.493 151.579 234 151.5C244.237 150.961 249.5 143.5 249.5 136C250 131.5 245.5 121.5 235.5 120.5H203L216.5 101H234C244.284 101 253.27 105.408 259 111.5C267 119 269 130 269 136C269 142 268 146.5 265.5 151.5C263.5 156 261.491 159.055 256 163.5C256.5 164 258.605 165.565 259 166C264 171.5 269 179.5 269 191C269 202 263.5 212 259 216C252.5 223 242 226 234 226H138L153 206.5H234C239.092 206.5 242.369 204.638 245 202.063C248.5 198 249.5 194 249.5 191C249.5 187.5 248.125 183.285 245 180C242.853 177.743 239.067 175.5 234 175.5C221.557 175.5 170.655 175.499 170.655 175.499L186 151.5Z" fill="url(#paint6_linear_122_201)" fill-opacity="0.2"/>
<path d="M109.75 256.25L55 223.5V161V98.5L109.5 67.5" stroke="url(#paint7_linear_122_201)"/>
</g>
<defs>
<linearGradient id="paint0_linear_122_201" x1="42" y1="146" x2="316" y2="140" gradientUnits="userSpaceOnUse">
<stop stop-color="#A07B1B"/>
<stop offset="0.598958" stop-color="#A07B1B" stop-opacity="0"/>
</linearGradient>
<linearGradient id="paint1_linear_122_201" x1="142.426" y1="134.991" x2="324.717" y2="136.153" gradientUnits="userSpaceOnUse">
<stop offset="0.192708" stop-color="#6D5F14" stop-opacity="0"/>
<stop offset="0.807292" stop-color="#C1A512"/>
</linearGradient>
<linearGradient id="paint2_linear_122_201" x1="142.426" y1="189.991" x2="324.717" y2="191.153" gradientUnits="userSpaceOnUse">
<stop offset="0.15625" stop-color="#6D5F14" stop-opacity="0"/>
<stop offset="0.807292" stop-color="#C1A512"/>
</linearGradient>
<linearGradient id="paint3_linear_122_201" x1="194" y1="136" x2="274" y2="136" gradientUnits="userSpaceOnUse">
<stop offset="0.307292" stop-color="#685A10" stop-opacity="0"/>
<stop offset="0.671875" stop-color="#C1A512"/>
</linearGradient>
<linearGradient id="paint4_linear_122_201" x1="194" y1="191" x2="274" y2="191" gradientUnits="userSpaceOnUse">
<stop offset="0.291667" stop-color="#685A10" stop-opacity="0"/>
<stop offset="0.807292" stop-color="#C1A512"/>
</linearGradient>
<linearGradient id="paint5_linear_122_201" x1="202" y1="83.5" x2="64" y2="250" gradientUnits="userSpaceOnUse">
<stop offset="0.203125" stop-opacity="0"/>
<stop offset="0.885417" stop-color="#AE851C"/>
</linearGradient>
<linearGradient id="paint6_linear_122_201" x1="202" y1="83.5" x2="64" y2="250" gradientUnits="userSpaceOnUse">
<stop offset="0.203125" stop-opacity="0"/>
<stop offset="0.885417" stop-color="#AE851C"/>
</linearGradient>
<linearGradient id="paint7_linear_122_201" x1="42" y1="146" x2="316" y2="140" gradientUnits="userSpaceOnUse">
<stop stop-color="#A07B1B"/>
<stop offset="0.260417" stop-color="#A07B1B" stop-opacity="0"/>
</linearGradient>
<clipPath id="clip0_122_201">
<rect width="324" height="324" fill="white"/>
</clipPath>
<clipPath id="clip1_122_201">
<rect width="180" height="180" fill="white" transform="translate(143 224.996) rotate(-89.6348)"/>
</clipPath>
<clipPath id="clip2_122_201">
<rect width="180" height="180" fill="white" transform="translate(143 279.996) rotate(-89.6348)"/>
</clipPath>
</defs>
</svg>
